<svg width="900" height="760" viewBox="0 0 900 760" fill="none" xmlns="http://www.w3.org/2000/svg">
  <path d="M175 182C159 168 128 169 119 191C102 192 91 205 95 221C99 238 121 242 134 231C145 245 171 247 181 230C199 229 209 211 199 197C193 188 184 184 175 182Z" stroke="#B4BDAE" stroke-width="10" stroke-linecap="round" stroke-linejoin="round" stroke-dasharray="24 16"/>
  <path d="M436 106C418 89 379 92 369 118C348 118 336 134 342 153C348 172 373 177 389 164C403 181 433 181 445 161C466 160 478 139 466 122C459 113 448 108 436 106Z" stroke="#B4BDAE" stroke-width="10" stroke-linecap="round" stroke-linejoin="round" stroke-dasharray="24 16"/>
  <path d="M715 154C698 137 662 140 652 165C632 166 620 181 625 199C631 218 657 221 672 209C685 224 714 226 727 206C747 204 758 184 746 168C739 160 728 155 715 154Z" stroke="#B4BDAE" stroke-width="10" stroke-linecap="round" stroke-linejoin="round" stroke-dasharray="24 16"/>

  <path d="M475 284C494 265 529 265 547 286" stroke="#F4F7EF" stroke-width="9" stroke-linecap="round"/>
  <path d="M483 308C499 324 526 325 541 308" stroke="#F4F7EF" stroke-width="8" stroke-linecap="round"/>
  <circle cx="495" cy="298" r="5" fill="#F4F7EF"/>
  <circle cx="532" cy="298" r="5" fill="#F4F7EF"/>
  <path d="M472 337C483 382 551 381 562 337" stroke="#F4F7EF" stroke-width="8" stroke-linecap="round"/>

  <path d="M440 375C422 430 413 505 413 626" stroke="#F4F7EF" stroke-width="12" stroke-linecap="round"/>
  <path d="M587 375C604 430 613 507 613 626" stroke="#F4F7EF" stroke-width="12" stroke-linecap="round"/>
  <path d="M441 374C472 397 554 398 586 374" stroke="#F4F7EF" stroke-width="12" stroke-linecap="round"/>
  <path d="M448 366C470 349 560 349 581 366L590 505C544 531 481 531 434 505L448 366Z" fill="#284048" stroke="#F4F7EF" stroke-width="10" stroke-linejoin="round"/>
  <path d="M435 405C397 426 365 449 344 477" stroke="#F4F7EF" stroke-width="12" stroke-linecap="round"/>
  <path d="M588 405C620 422 649 445 672 472" stroke="#F4F7EF" stroke-width="12" stroke-linecap="round"/>
  <path d="M345 477C332 461 335 440 352 428" stroke="#F4F7EF" stroke-width="10" stroke-linecap="round"/>
  <path d="M672 472C691 460 699 438 688 421" stroke="#F4F7EF" stroke-width="10" stroke-linecap="round"/>

  <path d="M477 523C470 568 462 611 455 655" stroke="#F4F7EF" stroke-width="13" stroke-linecap="round"/>
  <path d="M551 523C558 568 566 611 573 655" stroke="#F4F7EF" stroke-width="13" stroke-linecap="round"/>
  <path d="M434 663C456 676 486 674 501 656" stroke="#F4F7EF" stroke-width="11" stroke-linecap="round"/>
  <path d="M552 656C568 674 599 676 621 663" stroke="#F4F7EF" stroke-width="11" stroke-linecap="round"/>

  <path d="M245 676C249 655 249 641 241 624" stroke="#5EE28E" stroke-width="9" stroke-linecap="round"/>
  <path d="M265 676C267 659 274 645 287 633" stroke="#5EE28E" stroke-width="9" stroke-linecap="round"/>
  <path d="M723 678C727 657 727 643 719 626" stroke="#5EE28E" stroke-width="9" stroke-linecap="round"/>
  <path d="M742 678C744 662 751 648 764 636" stroke="#5EE28E" stroke-width="9" stroke-linecap="round"/>
  <path d="M400 692C405 672 405 660 398 646" stroke="#5EE28E" stroke-width="8" stroke-linecap="round"/>
  <path d="M418 694C421 677 428 665 439 655" stroke="#5EE28E" stroke-width="8" stroke-linecap="round"/>
</svg>
